<svg xmlns="http://www.w3.org/2000/svg" width="120.137" height="24.814" viewBox="0 0 120.137 24.814">
  <g id="Group_3751" data-name="Group 3751" transform="translate(-0.444 -0.443)">
    <g id="Group_3" data-name="Group 3" transform="translate(0.444 0.443)">
      <g id="Group_2" data-name="Group 2">
        <path id="Path_1" data-name="Path 1" d="M24.426,8.3A12.439,12.439,0,0,1,8.886,24.616,12.445,12.445,0,0,1,6.934,1.906,12.451,12.451,0,0,1,24.426,8.3Z" transform="translate(-0.444 -0.443)" fill="#008f84"/>
        <path id="Path_2" data-name="Path 2" d="M13.424,10.167c.419-.126.961-.457,1.381-.126.3.457,1.109.608.888,1.242a8.352,8.352,0,0,0,1.429,1.547c.124.026.172-.05.222-.126l-.148-.076c.173-.153.592.1.863-.052a.669.669,0,0,1,.543.228,4.019,4.019,0,0,0,.32.66l.1-.05a5.155,5.155,0,0,0,.32.634c.888.3,1.307,1.4,2.1,1.852a12.039,12.039,0,0,0,3.106,1.71c-.049.152.124.152.2.2v.025a.7.7,0,0,0-.493-.1c.149.229.518.127.593.38h-.395c0,.077.1.077.147.1-.2-.076-.395.076-.518-.178a15.9,15.9,0,0,1-2.269-1.126l-.024.024a9.251,9.251,0,0,0,2,1.152c.222.127.542.2.666.432-.075.025-.2.025-.222.127l-.172-.1c-.049.025,0,.076-.025.1l.124.1a9.81,9.81,0,0,1-2.54-1.329c-.37-.254-.74-.457-1.11-.735-.049,0-.123-.025-.148.051.42.329.863.532,1.282.837a6.979,6.979,0,0,1-2.293-1.7c-.271-.28-.666-.863-1.133-.761-.173.1-.444.076-.642.178-.147,0-.271-.178-.419-.051-.123.279-.518.051-.592.355-.246.1-.69.026-.764.33l.025.127c-.494.228-1.159.152-1.5.634-.1.1-.3-.025-.394.1a.076.076,0,0,0-.075-.1c-.124-.051-.2.076-.3.1-.073-.127.1-.152.075-.229-.223-.1-.322.2-.493.3.024-.2.246-.229.32-.406-.124-.075-.222.051-.32.076.049-.025.147-.2,0-.2.123-.2.394-.127.468-.355h-.2c.2-.153.419-.33.592-.482-.073,0-.222-.2-.345-.025,0-.025.049-.051.024-.076-.1-.1-.221.076-.345.076,0,.025.025-.076-.05-.1H13.2c.073-.051.173-.178.272-.254l-.05-.05a12.332,12.332,0,0,1,1.11-.66l.073-.076a.252.252,0,0,0-.394,0c.322-.025.025-.381.345-.43a1.011,1.011,0,0,1,.493-.609c-.32-.3-.444-.863-.814-1.04-.025-.228-.247,0-.271-.228-.444-.026-.962.2-1.258-.2a1.812,1.812,0,0,0-.74-.025,2.447,2.447,0,0,0-.394.634,2.354,2.354,0,0,0-.443.635,2,2,0,0,1-.889.811v-.051c-.271.381-.863.229-1.208.634l-.024-.1a.205.205,0,0,0-.247.152v.05c-.173-.05-.3.152-.369.253-.42.457-1.11.457-1.554.838-.049.025.024,0,0-.025-.814.178-1.209.811-1.751,1.421a3.441,3.441,0,0,1-.591.608c.049.2-.248.279-.345.381.1-.178.319-.33.345-.533-.2.1-.248.329-.469.43-.124-.1.124-.178.049-.279l-.3.229.272-.38c-.149.025-.3.279-.469.3-.049.076-.124.076-.222.076v-.025a5.566,5.566,0,0,0,.419-.407c-.172-.1-.37.127-.494.1-.049-.026-.024-.153-.147-.1.123-.1.246-.177.3-.329-.1-.026-.222.05-.322.1.025-.127.272-.2.2-.406-.32-.051-.271.279-.542.355.271-.38.666-.609.937-1.014l-.025-.025a7.087,7.087,0,0,1,1.8-1.32c.519-.3,1.208-.456,1.579-.963a4.061,4.061,0,0,0,.394-.584c.074.025.1-.05.124-.1a2.274,2.274,0,0,1,1.209-.381c.2-.2.567-.076.715-.356.518-.634.715-1.42,1.159-2.054.148-.2.32-.533.617-.609A11.856,11.856,0,0,1,13.424,10.167Z" transform="translate(-1.394 -4.244)" fill="#fff"/>
        <g id="Group_1" data-name="Group 1" transform="translate(11.339 10.31)">
          <path id="Path_3" data-name="Path 3" d="M20.75,17.906c-.124.1-.374.181-.4.336-.224-.026-.374.207-.548.207.025-.207.324-.078.349-.285l.2-.156.025.078c.075-.078.324-.026.25-.233Z" transform="translate(-19.679 -17.854)" fill="#fff"/>
          <path id="Path_4" data-name="Path 4" d="M19.867,18.2a.388.388,0,0,1-.274.207C19.642,18.282,19.742,18.282,19.867,18.2Z" transform="translate(-19.593 -17.997)" fill="#fff"/>
          <path id="Path_5" data-name="Path 5" d="M20.58,19.235c0,.053-.05.053-.075.1h-.075c-.025-.079.05-.1.1-.13C20.556,19.21,20.556,19.235,20.58,19.235Z" transform="translate(-19.933 -18.407)" fill="#fff"/>
        </g>
      </g>
    </g>
    <path id="Path_15" data-name="Path 15" d="M106.727,20.6h3.567V10.22h2.56V24.05h-2.56v-.936l-9.817-.025-.023.886H97.82V10.1h2.634V20.6l3.616-.025V7.834h2.657Z" transform="translate(-39.716 -3.014)" fill="#00928a"/>
    <g id="Group_6" data-name="Group 6" transform="translate(33.91 4.92)">
      <path id="Path_16" data-name="Path 16" d="M66.264,21.315V16.733h5.462v-2.5L66.263,14.2V10.592h5.852L72.12,8H57.772v2.589h5.785V14.2H58.141v2.529h5.415v4.582h-6.6v2.541h15.87V21.315Z" transform="translate(-56.961 -8.003)" fill="#00928a"/>
      <path id="Path_17" data-name="Path 17" d="M76.039,24.037A1.56,1.56,0,0,0,75.3,26.52a1.574,1.574,0,0,0,2.729-.587,1.678,1.678,0,0,0-.194-1.258A1.579,1.579,0,0,0,76.039,24.037Z" transform="translate(-64.298 -14.514)" fill="#00928a"/>
    </g>
    <g id="Group_7" data-name="Group 7" transform="translate(80.935 4.82)">
      <rect id="Rectangle_2" data-name="Rectangle 2" width="2.58" height="1.646" transform="translate(5.245 12.159) rotate(-77.703)" fill="#00928a"/>
      <path id="Path_18" data-name="Path 18" d="M150.653,19.967c1.894-1.374,2.254-1.632,2.254-1.632s-1.476-1.507-1.522-1.525-1.29.838-1.807,1.192a7.551,7.551,0,0,1-.306-1.7h2.736V8.07h-7.781V21.3c-.266.049-.519.095-.746.138l-.05-1.038-2.121.371V16.96h2.327V14.894H141.31v-.8H143V13.078c.1.073.156.114.156.114l1.069-2.424a5.848,5.848,0,0,1-2.744-2.935H139.3a6.766,6.766,0,0,1-2.921,3.407l1.069,2.424s.179-.156.452-.41v.837h1.367v.8h-2.527V16.96h2.527v4.169l-2.581.451.054,2.282,6.515-1.242-.016,1.207,5.238-.915-.108-2.08a7.89,7.89,0,0,0,3.321,3.048L152.8,21.7A10.6,10.6,0,0,1,150.653,19.967Zm-11.519-7.942a9.978,9.978,0,0,0,1.255-1.6,7.726,7.726,0,0,0,1.355,1.6Zm7.375-1.692h3.218v1.088h-3.218Zm0,10.569V16.3h.67a8.75,8.75,0,0,0,1.059,4.307C147.979,20.652,147.309,20.764,146.508,20.9Zm0-6.493V13.315h3.218v1.092Z" transform="translate(-136.376 -7.834)" fill="#00928a"/>
      <path id="Path_19" data-name="Path 19" d="M138.947,27.173l-.384-2.754-1.706.311.387,2.773Z" transform="translate(-136.572 -14.598)" fill="#00928a"/>
    </g>
    <g id="Group_8" data-name="Group 8" transform="translate(104.363 4.66)">
      <rect id="Rectangle_3" data-name="Rectangle 3" width="9.054" height="2.423" transform="translate(6.495 0.244)" fill="#00928a"/>
      <path id="Path_20" data-name="Path 20" d="M192.159,15.926H181.63l-1.775-1.264a17.98,17.98,0,0,1-3.914,4.6l1.108,2.658s.513-.441,1.221-1.15v5.751h2.471V17.888a13.343,13.343,0,0,0,.851-1.349v1.78h5.629v5.445a.348.348,0,0,1-.348.348h-2.863l.96,2.414h2.958a1.815,1.815,0,0,0,1.816-1.816V18.318h2.414Z" transform="translate(-175.941 -10.46)" fill="#00928a"/>
      <path id="Path_21" data-name="Path 21" d="M181.711,9.011c-.714-.467-1.4-.981-2.091-1.446a15.244,15.244,0,0,1-3.469,3.292l1.156,2.386A18.909,18.909,0,0,0,181.711,9.011Z" transform="translate(-176.027 -7.565)" fill="#00928a"/>
    </g>
  </g>
</svg>
